<svg xmlns="http://www.w3.org/2000/svg" viewBox="0 0 939.91 206.33"><title>logo-full</title><ellipse cx="861.21" cy="192.34" rx="39.37" ry="9.84" style="fill:#99ddd8;stroke:#00a99d;stroke-linecap:round;stroke-linejoin:round;stroke-width:6px"/><path d="M936.13,79.85c0,34.36-51.66,89.12-69.18,106.7a8.06,8.06,0,0,1-11.47,0C838,169,786.3,114.2,786.3,79.85a74.91,74.91,0,1,1,149.82,0Z" style="fill:#fff;stroke:#00a99d;stroke-linecap:round;stroke-linejoin:round;stroke-width:7.57147403263779px"/><path d="M936.13,79.85c0,34.36-51.66,89.12-69.18,106.71a8,8,0,0,1-5.75,2.39V4.94A74.92,74.92,0,0,1,936.13,79.85Z" style="fill:#33bab1"/><path d="M811.19,67.78V109a14,14,0,0,0,13.94,14h72.16a14,14,0,0,0,13.94-14V67.78Z" style="fill:#fff;stroke:#00a99d;stroke-linecap:round;stroke-linejoin:round;stroke-width:8.18325856047186px"/><rect x="846.05" y="33.36" width="30.32" height="41.14" rx="7.63" ry="7.63" style="fill:none;stroke:#00a99d;stroke-linecap:round;stroke-linejoin:round;stroke-width:7.57147403263779px"/><rect x="810.92" y="42.81" width="100.59" height="42.99" rx="15.67" ry="15.67" style="fill:#fff;stroke:#00a99d;stroke-linecap:round;stroke-linejoin:round;stroke-width:7.57147403263779px"/><rect x="826.53" y="79.04" width="10.9" height="14.07" rx="0.41" ry="0.41" style="fill:#fff;stroke:#00a99d;stroke-linecap:round;stroke-linejoin:round;stroke-width:7.57147403263779px"/><rect x="885" y="79.04" width="10.9" height="14.07" rx="0.41" ry="0.41" style="fill:#fff;stroke:#00a99d;stroke-linecap:round;stroke-linejoin:round;stroke-width:7.57147403263779px"/><path d="M936.13,79.85c0,34.36-51.66,89.12-69.18,106.7a8.06,8.06,0,0,1-11.47,0C838,169,786.3,114.2,786.3,79.85a74.91,74.91,0,1,1,149.82,0Z" style="fill:none;stroke:#00a99d;stroke-linecap:round;stroke-linejoin:round;stroke-width:7.57147403263779px"/><path d="M107.43,11.15q2.45,0,4.9.11c20.48.94,38.83,7.63,54.82,20.53A99.76,99.76,0,0,1,191,58.92a81.1,81.1,0,0,1,10.46,30,90.51,90.51,0,0,1,.95,14.2c-.25,14.69-3.26,28.72-10.19,41.8a94.76,94.76,0,0,1-21.32,26.69,90.73,90.73,0,0,1-34,19.18,99.24,99.24,0,0,1-20,3.86c-3.41.31-6.81.33-9.32.39h-1a96.85,96.85,0,0,1-35-6.09,90.87,90.87,0,0,1-26.17-15.37A98.59,98.59,0,0,1,23,147.55a85.34,85.34,0,0,1-10.63-30,98.53,98.53,0,0,1-1.24-17.16c.38-20.71,7.22-39,20.85-54.72A100.75,100.75,0,0,1,63.89,20.81a93,93,0,0,1,26.29-8.26,108,108,0,0,1,17.25-1.39m.22,163.47h.52c2.82-.06,5.76-.07,8.69-.38a69.48,69.48,0,0,0,21-5.59,75.15,75.15,0,0,0,24-17.27A69.9,69.9,0,0,0,177.31,127,71.21,71.21,0,0,0,181,94.64,67.22,67.22,0,0,0,175,73.05,71.57,71.57,0,0,0,155.4,48.26C142.82,37.82,128.22,32.43,112,31.32q-3.15-.21-6.31-.22a83.16,83.16,0,0,0-8.83.46,71.73,71.73,0,0,0-16,3.5C66.14,40.18,54.41,49.36,45.1,61.7A66.44,66.44,0,0,0,32,95.9a74.41,74.41,0,0,0,.22,16,63.88,63.88,0,0,0,5.6,20.06c7.08,15,18.28,26,32.77,33.82,11.52,6.21,24,8.88,37.1,8.88M107.43,0h0a119.64,119.64,0,0,0-19,1.54A104.63,104.63,0,0,0,59,10.79,112.35,112.35,0,0,0,23.59,38.38C8.38,55.91.45,76.7,0,100.2a110.25,110.25,0,0,0,1.38,19.1,96.86,96.86,0,0,0,12,33.87,110.27,110.27,0,0,0,24.88,29,102.39,102.39,0,0,0,29.37,17.23,108,108,0,0,0,38.92,6.81h1.26l1.35,0c2.45-.05,5.5-.12,8.69-.41a111,111,0,0,0,22.27-4.3A102.24,102.24,0,0,0,178.24,180,106.37,106.37,0,0,0,202,150.16c7.43-14,11.19-29.34,11.49-46.83a100.94,100.94,0,0,0-1.06-15.94,92.57,92.57,0,0,0-11.88-34.12,111.49,111.49,0,0,0-26.42-30.16C156.57,8.92,135.94,1.19,112.85.12,111,0,109.23,0,107.43,0Zm.22,163.47c-12,0-22.39-2.47-31.81-7.54-13-7-22.12-16.39-28-28.77a52.41,52.41,0,0,1-4.6-16.59A62.83,62.83,0,0,1,43.06,97,55,55,0,0,1,54,68.41c8.41-11.14,18.4-18.6,30.54-22.82A60.16,60.16,0,0,1,98,42.65a72.37,72.37,0,0,1,7.65-.4c1.81,0,3.68.06,5.55.19,14.44,1,26.56,5.7,37.05,14.4a60.16,60.16,0,0,1,16.65,20.94,55.69,55.69,0,0,1,5,18,59.77,59.77,0,0,1-3,27.37,58.41,58.41,0,0,1-13,20.51,63.68,63.68,0,0,1-20.48,14.76,58.71,58.71,0,0,1-17.67,4.69c-2,.22-4.22.25-6.53.3l-1.12,0Z" style="fill:#00a99d"/><path d="M215.64,78.86h17.74c1.52,0,1.55,0,1.55,1.53,0,4.46,0,8.91,0,13.37q0,24.93,0,49.85A43.42,43.42,0,0,0,237.42,159c3.29,8.81,9.7,14.16,19,16.1a40.79,40.79,0,0,0,8.3.89,33.07,33.07,0,0,0,8.13-1c8.79-2.22,14.66-7.74,18.19-15.79a37.35,37.35,0,0,0,2.93-13.7c.12-3.25.07-6.5.07-9.75q0-27.36,0-54.73c0-2.2,0-2.2,2.16-2.2h15.86c1.92,0,1.92,0,1.92,1.85q0,17.52,0,35h0c0,11,.1,22,0,33.05a44.44,44.44,0,0,1-6.54,23.39,45.69,45.69,0,0,1-30.17,21.39,63.72,63.72,0,0,1-13.42,1.47,55.42,55.42,0,0,1-16.44-2.45c-15.42-4.76-25.47-14.93-30.39-30a54.33,54.33,0,0,1-2.33-17.1q0-32.33,0-64.66c0-.3,0-.6,0-.9-.07-.8.3-1.13,1-1.13m0-11.15a12,12,0,0,0-12.13,12.75c0,.15,0,.29,0,.44V98.65q0,23.45,0,46.9a64.54,64.54,0,0,0,2.88,20.58c6.07,18.56,19.11,31.4,37.69,37.14a66.77,66.77,0,0,0,19.73,3,75.12,75.12,0,0,0,15.77-1.72c16-3.44,28.54-12.33,37.29-26.4a55.56,55.56,0,0,0,8.22-29.15c.09-7.78.07-15.66,0-23.27q0-4.56,0-9.12,0-.39,0-.78v-8.55q0-13.25,0-26.49a12.1,12.1,0,0,0-13.07-13H296.21a12.87,12.87,0,0,0-9.85,3.62,13,13,0,0,0-3.46,9.73V99q0,18.41,0,36.82,0,1.19,0,2.38c0,2.42,0,4.72-.07,7a26.23,26.23,0,0,1-2,9.65c-2.3,5.25-5.6,8.16-10.7,9.45a21.77,21.77,0,0,1-5.4.65,29.83,29.83,0,0,1-6-.66c-5.66-1.18-8.9-3.89-10.84-9.08a32.12,32.12,0,0,1-1.78-11.51q0-18,0-36V90q0-4.84,0-9.68c0-7.66-5-12.62-12.68-12.64H215.64Z" style="fill:#00a99d"/><path d="M348.8,11.16h0l8.66,0,8.9,0h0c.75,0,.94.18.94,1q0,32.86,0,65.73c0,.81.14,1.06,1,1.06h0c6.53,0,13.06,0,19.59,0h0c.62,0,.83.12.82.8q0,7.87,0,15.75c0,.71-.25.78-.83.78h0c-6.56,0-13.12,0-19.68,0h0c-.72,0-.9.18-.9.91q0,24.33,0,48.66t0,48.39c0,.83-.19,1.05-1,1.05h0q-4.41,0-8.82,0t-8.83,0h0c-.82,0-1-.27-1-1q0-48.44,0-96.88c0-.84-.15-1.12-1-1.12h0c-6.53,0-13.06,0-19.59,0h0c-.65,0-.8-.17-.79-.82q0-7.87,0-15.75c0-.61.15-.77.76-.77h0c6.56,0,13.12,0,19.68,0h0c.86,0,1-.26,1-1.07q0-32.78,0-65.55c0-.93.27-1.13,1.12-1.13M348.8,0A11.94,11.94,0,0,0,336.53,12.3q0,17.86,0,35.72,0,9.85,0,19.71H327a11.86,11.86,0,0,0-8.51,3.44,11.71,11.71,0,0,0-3.4,8.54c0,5.52,0,10.63,0,15.63a11.7,11.7,0,0,0,11.94,12h9.54q0,21.2,0,42.4,0,22.2,0,44.41a11.85,11.85,0,0,0,12.11,12.18h.09c2.94,0,5.86,0,8.77,0s5.83,0,8.74,0h.11a11.87,11.87,0,0,0,12.16-12.22c0-13.34,0-26.91,0-40V138q0-15.33,0-30.65H388a11.7,11.7,0,0,0,12-12c0-5,0-10.1,0-15.6a11.9,11.9,0,0,0-3.4-8.57A11.76,11.76,0,0,0,388,67.72h-9.47q0-11.41,0-22.81,0-16.39,0-32.78A11.81,11.81,0,0,0,366.43,0h-.09l-8.84,0-8.59,0Z" style="fill:#00a99d"/><path d="M437.77,79a44.19,44.19,0,0,1,21.59,5.94,96,96,0,0,1,12.56,8.25c1.41,1.1,1.44,1.17.15,2.32-3.7,3.29-7.44,6.54-11.16,9.8a1.6,1.6,0,0,1-1.07.44,2.38,2.38,0,0,1-1.23-.42c-2.53-1.56-5-3.15-7.62-4.62a26.53,26.53,0,0,0-12.88-3.35h-.85A28,28,0,0,0,427.08,99a12.22,12.22,0,0,0-5.23,19.08,24.46,24.46,0,0,0,8,6.24c4.08,2.06,8.27,3.92,12.48,5.71A101.07,101.07,0,0,1,458,137.75a47.69,47.69,0,0,1,7.52,5.71,25.43,25.43,0,0,1,7.64,17.49c.6,11.86-4.43,20.91-14,27.61-6,4.22-12.89,6.07-20.15,6.55q-1.3.09-2.58.09A42.68,42.68,0,0,1,416.58,190a92.21,92.21,0,0,1-13.82-8.85c-.46-.35-.89-.75-1.49-1.25l6.26-5.5,5.72-5c.56-.49.92-.73,1.32-.73a2.54,2.54,0,0,1,1.3.57c3.71,2.47,7.43,5,11.7,6.37a31.69,31.69,0,0,0,9.81,1.62,28.63,28.63,0,0,0,10.05-1.83,12.31,12.31,0,0,0,4.29-20.27A41.57,41.57,0,0,0,439,147a56.64,56.64,0,0,0-5.49-2.26,93.12,93.12,0,0,1-14.4-6.54,39.7,39.7,0,0,1-11.61-8.66,24.7,24.7,0,0,1-6.14-13.92,30.3,30.3,0,0,1,12.89-29.34,38.35,38.35,0,0,1,17.74-6.84,41,41,0,0,1,5.82-.42m0-11.15a52.42,52.42,0,0,0-7.4.53,49,49,0,0,0-22.78,8.91A42.62,42.62,0,0,0,391.73,99a42.12,42.12,0,0,0-1.48,17.91,35.77,35.77,0,0,0,8.9,20,50.6,50.6,0,0,0,14.79,11.14l.88.46a96,96,0,0,0,15.26,6.81,35,35,0,0,1,3.28,1.35l1.12.5a30.39,30.39,0,0,1,9.42,5.89,1.09,1.09,0,0,1,.31,1.09,1,1,0,0,1-.66.8,17.39,17.39,0,0,1-6.16,1.13A20.69,20.69,0,0,1,431,165c-2.69-.87-5.57-2.79-8.62-4.82l-.36-.24a13.21,13.21,0,0,0-7.46-2.43,13,13,0,0,0-8.69,3.52l-4.9,4.31-.8.71-4.26,3.74-2,1.75a11.15,11.15,0,0,0,.15,16.89l.47.4c.4.35.86.75,1.41,1.17a103.85,103.85,0,0,0,15.49,9.92,54,54,0,0,0,25,6.41c1.1,0,2.21,0,3.31-.11,10.14-.67,18.59-3.47,25.83-8.55,13-9.14,19.47-22,18.69-37.3a36.77,36.77,0,0,0-11-24.89,58,58,0,0,0-9.25-7.1,108.79,108.79,0,0,0-17.11-8.53l-.21-.09c-4.87-2.07-8.52-3.74-11.83-5.41a13.4,13.4,0,0,1-4.4-3.35.78.78,0,0,1-.15-.78,1.16,1.16,0,0,1,.75-.82,17.16,17.16,0,0,1,6.19-.91h.66a15.48,15.48,0,0,1,7.57,1.89c1.86,1.05,3.71,2.2,5.67,3.42l1.61,1a13.34,13.34,0,0,0,7.07,2.08,12.8,12.8,0,0,0,8.41-3.2l2.13-1.86c3-2.61,6.07-5.31,9.1-8a11.92,11.92,0,0,0-.71-19.44,107.67,107.67,0,0,0-14-9.21,55.46,55.46,0,0,0-27-7.33Z" style="fill:#00a99d"/><path d="M495.62,78.86h8.32c1.91,0,1.92,0,1.92,2q0,37.5,0,75,0,18.24,0,36.48c0,.43,0,.87,0,1.3,0,1.4,0,1.43-1.5,1.44h-16.8c-1.88,0-1.89,0-1.89-2q0-26.15,0-52.29,0-2,0-3.91,0-27.64,0-55.27c0-.37,0-.74,0-1.12,0-1.61,0-1.63,1.66-1.63h8.3m0-11.15h-8.31A12.59,12.59,0,0,0,478,71.18a12.43,12.43,0,0,0-3.51,9.15c0,.33,0,.65,0,1v71.48q0,20.15,0,40.3a12.13,12.13,0,0,0,13,13.12h16.84c7.44,0,12.39-4.83,12.61-12.26,0-.44,0-.88,0-1.31V140.85q0-30,0-60A12.14,12.14,0,0,0,504,67.72Z" style="fill:#00a99d"/><path d="M495.76,43.08a13.15,13.15,0,1,1-13.19,13.15,13.17,13.17,0,0,1,13.19-13.15m0-11.15a24.3,24.3,0,1,0,24.34,24.3,24.34,24.34,0,0,0-24.34-24.3Z" style="fill:#00a99d"/><path d="M634.67,11.22V195.09H615.91v-15.2c-11.51,10.06-24.51,15.24-39.12,15.24q-2.84,0-5.76-.26a56.51,56.51,0,0,1-37.68-18.74,57.84,57.84,0,0,1,0-78.17,56.63,56.63,0,0,1,40.39-19q1.54-.07,3.05-.07c14.77,0,27.75,5.21,39.15,15.21V11.22h18.78M576.15,177.83h.55a40.84,40.84,0,0,0,.05-81.67h-.24a40.84,40.84,0,1,0-.36,81.67M634.67.07H615.89a11.15,11.15,0,0,0-11.15,11.15V73.7a67.5,67.5,0,0,0-28-5.93c-1.18,0-2.39,0-3.58.09a67.49,67.49,0,0,0-48.08,22.57,69,69,0,0,0,0,93.23A67.39,67.39,0,0,0,570,206c2.27.2,4.54.31,6.76.31a67.2,67.2,0,0,0,29-6.45,11.15,11.15,0,0,0,10.09,6.41h18.76a11.15,11.15,0,0,0,11.15-11.15V11.22A11.15,11.15,0,0,0,634.67.07ZM576.15,166.68A29.73,29.73,0,0,1,546.63,137a29.83,29.83,0,0,1,29.88-29.7h.18a29.69,29.69,0,0,1,0,59.37h-.55Z" style="fill:#00a99d"/><path d="M705.15,78.83q2.61,0,5.26.23a58.11,58.11,0,0,1,53.08,60.13H672.33l-5.58,0H665c-.6,0-.82.17-.73.81.13.9.13,1.81.27,2.71a39.74,39.74,0,0,0,12.26,23.77c8.15,7.61,17.46,11.49,27.75,11.49a45.32,45.32,0,0,0,9.77-1.11c13.2-2.91,22.61-10.87,28.4-23a.81.81,0,0,1,.84-.56h0q8.82,0,17.65,0a58.22,58.22,0,0,1-55.81,41.8,59.63,59.63,0,0,1-12.85-1.41,58.11,58.11,0,0,1,12.6-114.86m38.23,45.79h1.09a40.22,40.22,0,0,0-10.87-17.3C725.55,99.84,716.29,96,706,96a44.11,44.11,0,0,0-7.81.72c-15.66,2.81-26.19,12.09-31.8,26.91-.39,1-.36,1,.75,1h76.25M705.15,67.68a69.25,69.25,0,0,0-15,136.9,71,71,0,0,0,15.26,1.67,69.37,69.37,0,0,0,66.5-49.8,11.15,11.15,0,0,0-1.1-8.84,11.12,11.12,0,0,0,3.84-8A69.2,69.2,0,0,0,711.39,68c-2.07-.18-4.17-.28-6.24-.28Zm-18.66,45.79a30.07,30.07,0,0,1,13.67-5.83,33.14,33.14,0,0,1,5.84-.54,27.67,27.67,0,0,1,17.67,6.37Zm-8.1,36.88H732c-4.42,8.52-11,13.64-20.08,15.64a34.37,34.37,0,0,1-7.37.84c-7.44,0-14-2.78-20.14-8.48a27.74,27.74,0,0,1-6-8Z" style="fill:#00a99d"/><path d="M107.55,195.07a97.32,97.32,0,0,1-36-6.08,90.87,90.87,0,0,1-26.17-15.37A98.59,98.59,0,0,1,23,147.55a85.34,85.34,0,0,1-10.63-30,98.53,98.53,0,0,1-1.24-17.16c.38-20.71,7.22-39,20.85-54.72A100.75,100.75,0,0,1,63.89,20.81a93,93,0,0,1,26.29-8.26,107.56,107.56,0,0,1,22.15-1.28c20.48.94,38.83,7.63,54.82,20.53A99.76,99.76,0,0,1,191,58.92a81.1,81.1,0,0,1,10.46,30,90.5,90.5,0,0,1,.95,14.2c-.25,14.69-3.26,28.72-10.19,41.8a94.76,94.76,0,0,1-21.32,26.69,90.73,90.73,0,0,1-34,19.18,99.24,99.24,0,0,1-20,3.86C113.47,195,110.06,195,107.55,195.07Zm.62-20.45c2.82-.06,5.76-.07,8.69-.38a69.48,69.48,0,0,0,21-5.59,75.15,75.15,0,0,0,24-17.27A69.9,69.9,0,0,0,177.31,127,71.21,71.21,0,0,0,181,94.64,67.22,67.22,0,0,0,175,73.05,71.57,71.57,0,0,0,155.4,48.26C142.82,37.82,128.22,32.43,112,31.32a86.8,86.8,0,0,0-15.14.24,71.73,71.73,0,0,0-16,3.5C66.14,40.18,54.41,49.36,45.1,61.7A66.44,66.44,0,0,0,32,95.9a74.41,74.41,0,0,0,.22,16,63.88,63.88,0,0,0,5.6,20.06c7.08,15,18.28,26,32.77,33.82C82.23,172,94.83,174.69,108.17,174.62Z" style="fill:#fff"/><path d="M314,115.77c0,11,.1,22,0,33.05a44.44,44.44,0,0,1-6.54,23.39,45.69,45.69,0,0,1-30.17,21.39,58.35,58.35,0,0,1-29.86-1c-15.42-4.76-25.47-14.93-30.39-30a54.33,54.33,0,0,1-2.33-17.1q0-32.33,0-64.66c0-.3,0-.6,0-.9-.08-.89.38-1.19,1.21-1.12.12,0,.25,0,.37,0,5.72,0,11.43,0,17.15,0,1.52,0,1.55,0,1.55,1.53,0,4.46,0,8.91,0,13.37q0,24.93,0,49.85A43.42,43.42,0,0,0,237.42,159c3.29,8.81,9.7,14.16,19,16.1a36.3,36.3,0,0,0,16.44-.1c8.79-2.22,14.66-7.74,18.19-15.79a37.35,37.35,0,0,0,2.93-13.7c.12-3.25.07-6.5.07-9.75q0-27.36,0-54.73c0-2.2,0-2.2,2.16-2.2h15.86c1.92,0,1.92,0,1.92,1.85q0,17.52,0,35Z" style="fill:#fff"/><path d="M367.36,145.74q0,24.2,0,48.39c0,.84-.19,1.06-1.05,1.05q-8.82-.06-17.65,0c-.85,0-1-.26-1-1q0-48.44,0-96.88c0-.85-.15-1.12-1.08-1.12-6.53,0-13.06,0-19.59,0-.67,0-.82-.16-.81-.82q0-7.87,0-15.75c0-.61.15-.78.77-.77,6.56,0,13.12,0,19.68,0,.89,0,1-.25,1-1.07q0-32.78,0-65.55c0-.95.28-1.13,1.16-1.13q8.78.06,17.56,0c.77,0,1,.17,1,1q0,32.86,0,65.73c0,.82.14,1.06,1,1.06,6.53,0,13.06,0,19.59,0,.63,0,.85.12.84.8q0,7.87,0,15.75c0,.72-.26.78-.86.78-6.56,0-13.12,0-19.68,0-.73,0-.92.18-.92.91Q367.37,121.41,367.36,145.74Z" style="fill:#fff"/><path d="M401.27,179.92l6.26-5.5,5.72-5c1.06-.93,1.42-1,2.61-.16,3.71,2.47,7.43,5,11.7,6.37a29.53,29.53,0,0,0,19.86-.21,12.31,12.31,0,0,0,4.29-20.27A41.57,41.57,0,0,0,439,147a56.64,56.64,0,0,0-5.49-2.26,93.12,93.12,0,0,1-14.4-6.54,39.7,39.7,0,0,1-11.61-8.66,24.7,24.7,0,0,1-6.14-13.92,30.3,30.3,0,0,1,12.89-29.34,38.35,38.35,0,0,1,17.74-6.84c9.79-1.4,18.86.79,27.42,5.52a96,96,0,0,1,12.56,8.25c1.41,1.1,1.44,1.17.15,2.32-3.7,3.29-7.44,6.54-11.16,9.8a1.75,1.75,0,0,1-2.3,0c-2.53-1.56-5-3.15-7.62-4.62a26.53,26.53,0,0,0-12.88-3.35,28.94,28.94,0,0,0-11,1.64,12.22,12.22,0,0,0-5.23,19.08,24.46,24.46,0,0,0,8,6.24c4.08,2.06,8.27,3.92,12.48,5.71A101.07,101.07,0,0,1,458,137.75a47.69,47.69,0,0,1,7.52,5.71,25.43,25.43,0,0,1,7.64,17.49c.6,11.86-4.43,20.91-14,27.61-6,4.22-12.89,6.07-20.15,6.55A42,42,0,0,1,416.58,190a92.2,92.2,0,0,1-13.82-8.85C402.3,180.82,401.87,180.43,401.27,179.92Z" style="fill:#fff"/><path d="M485.66,136.89q0-27.64,0-55.27c0-.37,0-.74,0-1.12,0-1.61,0-1.63,1.66-1.63h16.61c1.91,0,1.92,0,1.92,2q0,37.5,0,75,0,18.24,0,36.48c0,.43,0,.87,0,1.3,0,1.4,0,1.43-1.5,1.44q-8.4,0-16.8,0c-1.88,0-1.89,0-1.89-2q0-26.15,0-52.29Q485.66,138.85,485.66,136.89Z" style="fill:#fff"/><ellipse cx="495.76" cy="56.22" rx="13.19" ry="13.15" style="fill:#fff"/><path d="M615.91,179.89c-13,11.36-27.9,16.5-44.89,15a56.51,56.51,0,0,1-37.68-18.74,57.84,57.84,0,0,1,0-78.17,56.63,56.63,0,0,1,40.39-19c16-.76,30,4.46,42.21,15.13V11.22h18.78V195.09H615.91Zm-39.45-2.06a40.84,40.84,0,1,0-41-40.83A40.82,40.82,0,0,0,576.47,177.83Z" style="fill:#fff"/><path d="M761.2,153.3a58.18,58.18,0,1,1,2.29-14.11H672.33c-2.44,0-4.88,0-7.32,0-.62,0-.84.16-.75.81.13.9.13,1.81.27,2.71a39.74,39.74,0,0,0,12.26,23.77c10.66,10,23.31,13.52,37.52,10.38,13.2-2.91,22.61-10.87,28.4-23a.81.81,0,0,1,.85-.56Q752.38,153.3,761.2,153.3Zm-16.74-28.68a40.22,40.22,0,0,0-10.87-17.3c-10-9.33-22-13.07-35.42-10.65-15.66,2.81-26.19,12.09-31.8,26.91-.39,1-.36,1,.75,1h77.33Z" style="fill:#fff"/></svg>